<svg xmlns="http://www.w3.org/2000/svg" viewBox="0 0 609 130" width="108" height="24">
  <rect x="0" y="0" width="61" height="61" fill="#F25022"/>
  <rect x="67" y="0" width="61" height="61" fill="#7FBA00"/>
  <rect x="0" y="67" width="61" height="61" fill="#00A4EF"/>
  <rect x="67" y="67" width="61" height="61" fill="#FFB900"/>
 <!-- <path d="M213.2 74.3l-3.6 10.2h-.3c-.6-2.3-1.7-5.8-3.5-10L186.5 26h-18.9v91.6h12.5V82c0-3 0-6.4-.1-10.6-.1-2.1-.3-3.7-.4-4.9h.3c.6 3 1.3 5.2 1.8 6.6l23.2 44.4h8.8l23-44.1c.5-1.4 1.2-3.7 1.8-6.9h.3c-.3 5.7-.5 10.8-.6 13.9v40h13.3V26h-18.2l-19.8 48.3zm50.3-26.6h13V115h-13zm6.7-23.3c-2.2 0-4 .7-5.5 2-1.5 1.4-2.2 3.1-2.2 5.2 0 2 .7 3.7 2.2 5.1 1.5 1.4 3.3 2 5.5 2s4.1-.7 5.5-2c1.5-1.4 2.2-3.1 2.2-5.1 0-2.1-.7-3.8-2.2-5.2-1.4-1.3-3.2-2-5.5-2zm52.2 49.6c-2.4-1.1-4.9-1.9-7.3-2.3-2.4-.4-4.7-.7-6.9-.7-3.3 0-6.2.7-8.7 2.1-2.4 1.4-4.3 3.3-5.7 5.7-1.3 2.4-2 5.1-2 8.1 0 3.7 1 7 2.9 9.8 1.9 2.8 4.5 5 7.8 6.5 3.3 1.5 7 2.2 11.1 2.2 3.6 0 7-.5 10.3-1.6v-11c-1.7.7-3.4 1.3-5.1 1.7-1.7.4-3.4.6-5 .6-3 0-5.5-.8-7.5-2.5s-3-3.9-3-6.7c0-2.8 1-5 3-6.7s4.5-2.5 7.5-2.5c1.5 0 3.1.2 4.8.6 1.7.4 3.4 1 5.3 1.7v-11.1c-1.1-.5-2.2-.9-3.5-1.3zm33 0c-2.4-1.1-4.9-1.9-7.3-2.3-2.4-.4-4.7-.7-6.9-.7-3.3 0-6.2.7-8.7 2.1-2.4 1.4-4.3 3.3-5.7 5.7-1.3 2.4-2 5.1-2 8.1 0 3.7 1 7 2.9 9.8 1.9 2.8 4.5 5 7.8 6.5 3.3 1.5 7 2.2 11.1 2.2 3.6 0 7-.5 10.3-1.6v-11c-1.7.7-3.4 1.3-5.1 1.7-1.7.4-3.4.6-5 .6-3 0-5.5-.8-7.5-2.5s-3-3.9-3-6.7c0-2.8 1-5 3-6.7s4.5-2.5 7.5-2.5c1.5 0 3.1.2 4.8.6 1.7.4 3.4 1 5.3 1.7v-11.1c-1.1-.5-2.2-.9-3.5-1.3zm46.6-11.6h-8.5c-.4 0-.7.2-1 .5l-14.5 36.3h-.3L358 63.4c-.2-.4-.6-.5-1-.5h-8.4c-.7 0-1 .3-1 1 0 .2 0 .3.1.5l19.9 48.8c.2.4.6.6 1 .6h8.8c.4 0 .7-.2 1-.6l19.9-48.8c0-.2.1-.3.1-.5 0-.7-.3-1-1-1zm-4.5-14.7c-2.2 0-4 .7-5.5 2-1.5 1.4-2.2 3.1-2.2 5.2 0 2 .7 3.7 2.2 5.1 1.5 1.4 3.3 2 5.5 2s4.1-.7 5.5-2c1.5-1.4 2.2-3.1 2.2-5.1 0-2.1-.7-3.8-2.2-5.2-1.4-1.3-3.2-2-5.5-2z" fill="#666666"/> -->
</svg>

